
La historia real en la que se basa la película “Intocable de Eric Toledano y Olivier Nakache”.

En 1994, Philippe Pozzo di Borgo quedó tetrapléjico a causa de un accidente de parapente. Abdel Sellou se ocupó de él durante 10 años, hasta 2004.
Abdel vive ahora entre Francia y Argelia, Philippe vive en Marruecos y ambos siguen siendo buenos amigos. Su historia se ha llevado a la gran pantalla con un éxito sin precedentes.

Este documental muestra el encuentro entre los actores y los auténticos protagonistas de esta historia.


Format : AVI
Format/Info : Audio Video Interleave
File size : 691 MiB
Duration : 47mn 12s




Overall bit rate : 2 046 Kbps

Video
ID : 0
Format : MPEG-4 Visual
Format profile : Advanced Simple@L5
Format settings, BVOP : No
Format settings, QPel : No
Format settings, GMC : No warppoints
Format settings, Matrix : Custom
Codec ID : XVID
Codec ID/Hint : XviD
Duration : 47mn 12s
Bit rate : 1 909 Kbps
Width : 720 pixels
Height : 416 pixels
Display aspect ratio : 1.731
Frame rate : 25.000 fps
Color space : YUV
Chroma subsampling : 4:2:0
Bit depth : 8 bits
Scan type : Progressive
Compression mode : Lossy
Bits/(Pixel*Frame) : 0.255
Stream size : 644 MiB (93%)
Writing library : XviD 1.2.1 (UTC 2008-12-04)

Audio
ID : 1
Format : MPEG Audio
Format version : Version 1
Format profile : Layer 3
Mode : Joint stereo
Mode extension : MS Stereo
Codec ID : 55
Codec ID/Hint : MP3
Duration : 47mn 12s
Bit rate mode : Constant
Bit rate : 128 Kbps
Channel(s) : 2 channels
Sampling rate : 48.0 KHz
Compression mode : Lossy
Stream size : 43.2 MiB (6%)
Alignment : Aligned on interleaves
Interleave, duration : 40 ms (1.00 video frame)
Interleave, preload duration : 480 ms


EN ESPAÑOL | DE ESPAÑA
